<svg width="329" height="285" viewBox="0 0 329 285" fill="none" xmlns="http://www.w3.org/2000/svg">
<g clip-path="url(#clip0_283_1121)">
<path d="M329 138.461C329 201.868 273.063 255.317 196.735 271.726C184.34 274.384 171.746 276.025 159.082 276.633C158.466 276.664 157.85 276.694 157.229 276.716C153.933 276.852 150.613 276.921 147.267 276.922C141.45 276.922 135.702 276.716 130.022 276.304C126.871 276.08 123.747 275.795 120.649 275.448C90.5205 272.077 62.7942 263.076 39.3757 249.889C36.4495 248.243 33.5922 246.531 30.8039 244.754C25.698 241.512 20.7686 238.002 16.0364 234.239C-15.2454 209.373 10.8353 156.297 27.1384 122.882C71.1415 32.6953 46.9003 0 147.267 0C247.634 0 329 61.9894 329 138.461Z" fill="#F2F2F2"/>
<path d="M257.072 57.0818C225.877 56.5239 225.882 10.2882 257.073 9.73486C288.267 10.2927 288.262 56.5285 257.072 57.0818Z" fill="white"/>
<path d="M198.078 125.983C166.883 125.425 166.888 79.1896 198.079 78.6362C229.273 79.1941 229.268 125.43 198.078 125.983Z" fill="white"/>
<path d="M259.615 195.949C228.421 195.391 228.425 149.155 259.616 148.602C290.81 149.16 290.805 195.395 259.615 195.949Z" fill="white"/>
<path d="M257.072 57.0818C225.877 56.5239 225.882 10.2882 257.073 9.73486C288.267 10.2927 288.262 56.5285 257.072 57.0818ZM257.072 11.1696C227.768 11.6938 227.772 55.1272 257.073 55.6471C286.376 55.1229 286.371 11.6895 257.072 11.1696Z" fill="#E6E6E6"/>
<path d="M120.539 275.119C120.469 274.896 120.421 274.666 120.394 274.434L111.334 222.912C111.321 222.779 111.3 222.647 111.272 222.517C111.081 221.577 110.603 220.72 109.904 220.062C109.206 219.404 108.32 218.977 107.369 218.839L55.7052 219.063C54.7277 218.917 53.7289 219.086 52.8549 219.546C51.9808 220.007 51.2773 220.734 50.8472 221.621C50.0069 223.368 49.1841 225.14 48.3787 226.936C45.118 234.173 42.117 241.824 39.3757 249.889C62.7942 263.076 90.5205 272.077 120.649 275.448L120.539 275.119Z" fill="#2F2E41"/>
<path d="M170.972 137.245C170.845 137.802 170.763 138.368 170.725 138.938L126.257 164.523L115.449 158.317L103.927 173.362L121.99 186.202C123.45 187.24 125.207 187.777 126.998 187.733C128.79 187.69 130.519 187.068 131.926 185.961L177.779 149.883C179.849 150.647 182.102 150.764 184.24 150.22C186.378 149.675 188.299 148.494 189.748 146.834C191.196 145.174 192.104 143.114 192.35 140.927C192.596 138.74 192.168 136.53 191.124 134.591C190.08 132.653 188.468 131.077 186.504 130.074C184.54 129.071 182.317 128.688 180.129 128.976C177.941 129.264 175.894 130.209 174.258 131.686C172.622 133.164 171.476 135.102 170.972 137.245Z" fill="#FFB8B8"/>
<path d="M125.648 161.967C125.513 161.312 125.239 160.695 124.843 160.155C124.448 159.616 123.94 159.168 123.356 158.842L102.951 147.462C100.24 145.376 96.8097 144.447 93.4126 144.879C90.0155 145.311 86.9287 147.068 84.829 149.767C82.7293 152.465 81.788 155.884 82.2115 159.273C82.6351 162.662 84.3888 165.746 87.0883 167.847L103.356 184.695C103.821 185.176 104.383 185.552 105.006 185.797C105.629 186.041 106.298 186.149 106.966 186.113C107.635 186.077 108.288 185.897 108.88 185.587C109.473 185.276 109.992 184.842 110.401 184.314L113.569 180.215L114.652 178.819L124.773 165.737C125.142 165.259 125.413 164.713 125.569 164.13C125.767 163.426 125.794 162.684 125.648 161.967Z" fill="#80C242"/>
<path d="M96.105 127.268C106.034 117.365 106.034 101.31 96.105 91.4077C86.1762 81.5052 70.0784 81.5052 60.1495 91.4077C50.2207 101.31 50.2207 117.365 60.1495 127.268C70.0784 137.17 86.1762 137.17 96.105 127.268Z" fill="#FFB8B8"/>
<path d="M110.274 205.313C111.294 203.79 117.785 193.512 115.329 181.465C115.149 180.572 114.923 179.689 114.652 178.819C113.495 175.193 111.646 171.824 109.209 168.896C109.24 168.089 109.231 167.295 109.182 166.505V166.5C108.824 161.011 106.489 155.837 102.608 151.929C98.7265 148.021 93.5605 145.643 88.0608 145.233L59.626 143.078C55.966 142.78 52.2883 143.374 48.9094 144.808C45.5305 146.243 42.5517 148.474 40.2293 151.311C39.6945 151.958 39.1936 152.632 38.7288 153.33L38.7271 153.33L38.7257 153.331L38.7247 153.333L38.7245 153.334C36.9316 156.033 35.7419 159.085 35.2362 162.283C34.7305 165.481 34.9207 168.749 35.7938 171.867L36.0359 172.93L39.0676 186.188L44.1367 208.372L48.3787 226.936L48.8276 228.893C49.0642 229.918 49.6418 230.833 50.4664 231.489C51.291 232.145 52.3139 232.503 53.3686 232.505C53.6222 232.506 53.8755 232.486 54.1255 232.444L109.147 223.447C109.924 223.323 110.655 223.003 111.272 222.517C111.643 222.222 111.968 221.875 112.236 221.485C112.595 220.968 112.843 220.383 112.966 219.766C113.088 219.15 113.082 218.514 112.949 217.9L110.274 205.313Z" fill="#80C242"/>
<path d="M1.98951 280.192C1.05627 278.865 0.426247 277.349 0.143822 275.752C-0.138603 274.156 -0.0665603 272.517 0.354874 270.951C0.776308 269.385 1.53689 267.93 2.58303 266.689C3.62917 265.448 4.93543 264.451 6.40981 263.767L37.737 167.706L55.8919 176.297L21.6148 269.832C22.6013 272.378 22.617 275.197 21.6589 277.754C20.7008 280.311 18.8355 282.429 16.4164 283.706C13.9973 284.983 11.1926 285.331 8.5336 284.683C5.87463 284.036 3.5462 282.438 1.98951 280.192Z" fill="#FFB8B8"/>
<path d="M55.6787 145.013C52.3226 144.006 48.7087 144.304 45.564 145.847C42.4192 147.39 39.977 150.064 38.7287 153.33L38.727 153.33L38.7256 153.331L38.7247 153.333L38.7244 153.334C38.6099 153.628 38.5044 153.936 38.412 154.243L35.7585 159.856L27.7412 176.818C27.4347 177.464 27.2717 178.169 27.2633 178.884C27.2548 179.598 27.4012 180.307 27.6924 180.96C27.9835 181.613 28.4126 182.196 28.9503 182.669C29.4881 183.142 30.1218 183.493 30.8081 183.699L32.3704 184.169L39.0675 186.188L50.9529 189.769L54.9132 190.962C55.5993 191.169 56.3221 191.226 57.0323 191.129C57.7424 191.032 58.4233 190.783 59.0284 190.4C59.6335 190.017 60.1487 189.508 60.5388 188.908C60.9289 188.309 61.1849 187.632 61.2891 186.925L64.9503 162.155C65.9905 158.656 65.599 154.888 63.8616 151.676C62.1242 148.464 59.1821 146.068 55.6787 145.013Z" fill="#80C242"/>
<path d="M101.473 100.117C92.4134 108.021 78.5056 109.856 67.6969 104.574C72.5523 110.319 81.7732 138.677 81.7732 138.677C81.7732 138.677 55.7369 135.948 52.0583 135.163C30.3316 130.53 38.229 74.4106 61.3801 74.694C65.3013 74.7419 68.7292 75.2148 71.339 78.1338C73.0713 73.291 78.5795 70.4383 83.7216 70.8076C88.8637 71.1769 93.5139 74.2573 96.8218 78.201C99.4615 81.3938 101.367 85.1252 102.404 89.1322C103.44 93.1392 103.583 97.3242 102.822 101.392L101.473 100.117Z" fill="#2F2E41"/>
<path d="M198.078 125.983C166.883 125.425 166.888 79.1896 198.079 78.6362C229.273 79.1941 229.268 125.43 198.078 125.983ZM198.078 80.071C168.774 80.5952 168.778 124.029 198.079 124.548C227.382 124.024 227.377 80.5909 198.078 80.071Z" fill="#E6E6E6"/>
<path d="M259.615 195.949C228.421 195.391 228.425 149.155 259.616 148.602C290.81 149.16 290.805 195.395 259.615 195.949ZM259.615 150.037C230.311 150.561 230.316 193.994 259.616 194.514C288.92 193.99 288.915 150.556 259.615 150.037Z" fill="#E6E6E6"/>
<path d="M262.142 21.2728C256.29 21.4405 244.91 19.3543 244.904 28.3525C245.072 34.1886 242.98 45.538 252.002 45.5438C257.854 45.3764 269.234 47.4625 269.24 38.4644C269.072 32.6283 271.163 21.2789 262.142 21.2728Z" fill="#3F3D56"/>
<path d="M263.663 28.352C261.693 28.3767 261.7 25.2913 263.669 25.3246C265.638 25.3003 265.632 28.385 263.663 28.352Z" fill="white"/>
<path d="M257.072 29.363C262.335 29.2858 262.335 37.5314 257.072 37.4537C251.809 37.5299 251.809 29.286 257.072 29.363ZM257.072 27.3405C249.179 27.2255 249.178 39.5921 257.072 39.4762C264.966 39.5912 264.965 27.2246 257.072 27.3405Z" fill="white"/>
<path d="M216.765 176.267C216.623 176.271 216.483 176.233 216.362 176.158C216.242 176.082 216.147 175.973 216.089 175.843C216.031 175.714 216.012 175.57 216.036 175.431C216.06 175.291 216.125 175.162 216.223 175.059L218.618 172.535C218.693 172.456 218.733 172.35 218.73 172.241C218.727 172.132 218.681 172.029 218.601 171.954L216.057 169.553C215.987 169.486 215.93 169.407 215.891 169.319C215.851 169.23 215.83 169.135 215.827 169.039C215.824 168.942 215.841 168.846 215.875 168.756C215.91 168.665 215.962 168.583 216.029 168.513C216.163 168.372 216.347 168.29 216.542 168.284C216.736 168.278 216.925 168.349 217.068 168.481L220.491 171.671C220.558 171.734 220.612 171.809 220.65 171.893C220.688 171.977 220.709 172.068 220.712 172.16C220.714 172.252 220.698 172.344 220.665 172.429C220.632 172.515 220.582 172.594 220.518 172.66L217.264 176.047C217.133 176.183 216.954 176.262 216.765 176.267Z" fill="#CCCCCC"/>
<path d="M214.15 172.594C214.072 172.666 213.97 172.707 213.864 172.71L205.884 172.929C205.826 172.931 205.769 172.921 205.715 172.901C205.66 172.88 205.611 172.849 205.569 172.809C205.527 172.77 205.493 172.722 205.47 172.67C205.446 172.617 205.433 172.56 205.431 172.503C205.43 172.445 205.44 172.388 205.46 172.334C205.481 172.28 205.512 172.231 205.552 172.189C205.592 172.147 205.639 172.113 205.692 172.09C205.745 172.066 205.802 172.053 205.86 172.052L213.84 171.832C213.929 171.83 214.017 171.855 214.092 171.904C214.167 171.953 214.226 172.023 214.259 172.106C214.293 172.189 214.301 172.28 214.281 172.367C214.261 172.454 214.216 172.534 214.15 172.594Z" fill="#CCCCCC"/>
<path d="M155.16 106.301C155.018 106.305 154.878 106.267 154.758 106.192C154.637 106.117 154.542 106.007 154.484 105.878C154.426 105.749 154.408 105.605 154.432 105.465C154.456 105.325 154.521 105.196 154.619 105.093L157.013 102.569C157.088 102.49 157.129 102.385 157.126 102.276C157.123 102.167 157.076 102.063 156.997 101.988L154.453 99.5872C154.383 99.5207 154.326 99.4412 154.286 99.353C154.247 99.2648 154.225 99.1697 154.223 99.0731C154.22 98.9765 154.236 98.8804 154.271 98.7901C154.306 98.6999 154.358 98.6173 154.424 98.5471C154.558 98.4064 154.743 98.3242 154.937 98.3182C155.132 98.3123 155.321 98.3831 155.464 98.5153L158.886 101.705C158.954 101.768 159.008 101.844 159.046 101.928C159.084 102.012 159.105 102.102 159.107 102.194C159.11 102.286 159.094 102.378 159.061 102.464C159.027 102.55 158.977 102.628 158.914 102.695L155.659 106.081C155.528 106.218 155.349 106.297 155.16 106.301Z" fill="#CCCCCC"/>
<path d="M152.545 102.628C152.467 102.7 152.366 102.741 152.259 102.744L144.28 102.964C144.222 102.965 144.164 102.955 144.11 102.935C144.056 102.914 144.007 102.883 143.965 102.844C143.923 102.804 143.889 102.757 143.865 102.704C143.842 102.651 143.829 102.595 143.827 102.537C143.825 102.479 143.835 102.422 143.856 102.368C143.877 102.314 143.908 102.265 143.947 102.223C143.987 102.181 144.035 102.148 144.088 102.124C144.141 102.101 144.197 102.088 144.255 102.086L152.235 101.867C152.325 101.864 152.413 101.889 152.488 101.938C152.563 101.987 152.621 102.058 152.655 102.14C152.689 102.223 152.696 102.314 152.677 102.402C152.657 102.489 152.611 102.568 152.545 102.628Z" fill="#CCCCCC"/>
<path d="M214.124 37.3999C213.982 37.404 213.842 37.366 213.722 37.2906C213.602 37.2153 213.506 37.1059 213.448 36.9765C213.39 36.8472 213.372 36.7035 213.396 36.5638C213.42 36.4241 213.485 36.2946 213.583 36.1917L215.977 33.6681C216.052 33.5889 216.093 33.4832 216.09 33.3743C216.087 33.2653 216.041 33.162 215.961 33.087L213.417 30.6858C213.347 30.6194 213.29 30.5398 213.251 30.4516C213.211 30.3634 213.189 30.2683 213.187 30.1717C213.184 30.0751 213.201 29.979 213.235 29.8888C213.27 29.7985 213.322 29.7159 213.388 29.6458C213.523 29.5051 213.707 29.4228 213.902 29.4169C214.096 29.4109 214.285 29.4817 214.428 29.6139L217.85 32.8038C217.918 32.8667 217.972 32.9423 218.01 33.0262C218.048 33.1102 218.069 33.2008 218.071 33.2929C218.074 33.3849 218.058 33.4766 218.025 33.5625C217.992 33.6484 217.942 33.7269 217.878 33.7934L214.623 37.1801C214.493 37.3161 214.313 37.3952 214.124 37.3999Z" fill="#CCCCCC"/>
<path d="M211.509 33.727C211.431 33.7988 211.33 33.8399 211.224 33.8426L203.244 34.0621C203.186 34.0637 203.128 34.054 203.074 34.0335C203.02 34.0129 202.971 33.982 202.929 33.9423C202.887 33.9027 202.853 33.8552 202.829 33.8026C202.806 33.75 202.793 33.6932 202.791 33.6355C202.79 33.5779 202.799 33.5205 202.82 33.4666C202.841 33.4128 202.872 33.3635 202.912 33.3216C202.951 33.2798 202.999 33.2462 203.052 33.2227C203.105 33.1992 203.162 33.1863 203.219 33.1848L211.199 32.9654C211.289 32.9629 211.377 32.9878 211.452 33.0367C211.527 33.0856 211.586 33.1561 211.619 33.239C211.653 33.3218 211.661 33.4129 211.641 33.5001C211.621 33.5873 211.575 33.6665 211.509 33.727Z" fill="#CCCCCC"/>
<path d="M205.954 261.071C203.89 265.345 200.528 268.804 196.735 271.726C184.34 274.384 171.746 276.025 159.082 276.633C158.466 276.664 157.85 276.694 157.229 276.716C153.933 276.852 150.613 276.921 147.267 276.923C141.45 276.923 135.702 276.716 130.022 276.304C129.806 275.001 129.776 273.674 129.934 272.363C130.563 267.232 134.467 262.519 139.531 261.431C144.596 260.342 150.369 263.357 151.905 268.29C152.754 258.776 153.727 248.866 158.8 240.765C163.39 233.431 171.341 228.182 179.961 227.243C185.027 226.717 190.139 227.651 194.689 229.933C195.107 230.144 195.521 230.364 195.93 230.592C198.661 232.135 201.071 234.187 203.028 236.635C208.405 243.42 209.721 253.285 205.954 261.071Z" fill="white"/>
<path d="M195.93 230.592C195.941 230.707 195.921 230.823 195.873 230.928C195.826 231.034 195.751 231.125 195.657 231.193C180.385 243.593 167.919 259.08 159.082 276.633C158.466 276.663 157.85 276.694 157.229 276.716C158.013 275.132 158.825 273.564 159.667 272.012C164.04 263.975 169.185 256.381 175.028 249.335C180.871 242.285 187.395 235.825 194.504 230.047C194.561 230.002 194.623 229.963 194.689 229.933C194.813 229.88 194.947 229.856 195.082 229.862C195.217 229.867 195.349 229.903 195.468 229.966C195.587 230.029 195.69 230.118 195.77 230.227C195.85 230.335 195.905 230.46 195.93 230.592Z" fill="#F2F2F2"/>
<path d="M272.503 166.303C272.503 166.303 270.488 168.554 270.101 168.699C269.036 180.254 261.802 182.879 255.993 182.879C251.817 182.879 248.376 181.522 248.491 181.149C254.686 181.294 255.214 178.758 255.214 178.758C251.615 178.227 250.893 175.883 250.893 175.883C251.216 176.053 251.59 176.098 251.944 176.009C252.298 175.921 252.607 175.706 252.812 175.405C248.926 174.395 249.454 170.612 249.454 170.612C250.146 171.112 250.955 171.426 251.804 171.525C251.373 170.998 247.738 166.654 249.925 164.402C250.053 164.745 253.837 169.884 260.16 169.511C260.01 168.777 260.025 168.019 260.204 167.292C260.382 166.565 260.72 165.886 261.193 165.304C261.666 164.723 262.262 164.253 262.938 163.929C263.615 163.604 264.355 163.433 265.106 163.428C268.468 163.428 269.19 165.346 269.19 165.346L271.592 163.906C271.544 163.906 271.302 166.303 270.101 166.781L272.503 166.303Z" fill="#3F3D56"/>
<path fill-rule="evenodd" clip-rule="evenodd" d="M211.157 102.387C211.157 105.519 210.037 108.548 207.998 110.93C205.959 113.312 203.134 114.891 200.033 115.381V106.192H203.104L203.689 102.387H200.033C199.91 99.218 199.786 97.4406 203.843 97.8663V94.6319C197.767 93.2978 195.232 96.3698 195.914 102.387H192.566V106.192H195.914V115.377C180.152 112.959 182.005 89.1769 197.969 89.2383C199.701 89.2379 201.415 89.5778 203.015 90.2384C204.615 90.899 206.069 91.8674 207.293 93.0883C208.518 94.3093 209.49 95.7588 210.152 97.3542C210.815 98.9496 211.157 100.66 211.157 102.387Z" fill="#3F3D56"/>
</g>
<defs>
<clipPath id="clip0_283_1121">
<rect width="329" height="285" fill="white"/>
</clipPath>
</defs>
</svg>
